#!OML:ASF I:\Actors\actors\Patient Classification 2\Patient 1\Session 1\actor1.ASF
:FULLY-SPECIFIED
:DEGREES
451
root -0.655921 18.7371 5.50861 3.14401 4.04896 -1.02559
lowerback 3.41963 4.61358 2.24234
upperback -0.0824076 6.27172 1.57613
thorax -1.93064 3.1148 0.058101
lowerneck -10.3654 -9.29976 -8.37935
upperneck 21.0071 -12.834 6.7514
head 9.29912 -6.0025 2.17178
rclavicle 3.1408e-014 2.70347e-014
rhumerus 15.1665 0.153703 -75.6518
rradius 60.0978
rwrist -56.6016
rhand -4.56386 -55.4211
rfingers 7.12502
rthumb 21.2124 275.72
lclavicle 3.1408e-014 2.70347e-014
lhumerus -36.2908 -30.3573 105.544
lradius 105.122
lwrist 73.967
lhand -16.1569 -11.5714
lfingers 7.12502
lthumb 10.0488 18.1687
rfemur 0 0 0
rtibia 0
rfoot 0 0
rtoes 0
lfemur -7.85643 -8.96239 -12.7892
ltibia 21.7121
lfoot -21.438 13.3181
ltoes -55.3101
452
root -0.655865 18.7381 5.50436 3.17456 4.1152 -1.00639
lowerback 3.55735 4.67708 2.34617
upperback -0.0232577 6.36498 1.65
thorax -1.94279 3.16056 0.0630025
lowerneck -10.4123 -9.38565 -8.42596
upperneck 20.9707 -12.9204 6.67648
head 9.30061 -6.05223 2.13984
rclavicle -1.18376e-013 -1.66979e-014
rhumerus 16.0534 -0.550774 -75.8024
rradius 59.0985
rwrist -56.2835
rhand -4.49255 -54.9316
rfingers 7.12502
rthumb 21.2809 276.217
lclavicle -1.18376e-013 -1.66979e-014
lhumerus -36.1874 -30.4962 105.56
lradius 105.14
lwrist 74.0204
lhand -16.1187 -11.7747
lfingers 7.12502
lthumb 10.0856 17.9636
rfemur 0 0 0
rtibia 0
rfoot 0 0
rtoes 0
lfemur -7.91615 -9.02071 -12.801
ltibia 21.7016
lfoot -21.3845 13.3108
ltoes -55.3059
453
root -0.656233 18.739 5.49922 3.21975 4.17682 -1.04045
lowerback 3.72801 4.74349 2.53216
upperback 0.000954006 6.46807 1.71824
thorax -1.99936 3.20955 0.011946
lowerneck -10.3627 -9.48381 -8.49692
upperneck 20.9119 -13.0376 6.65633
head 9.28478 -6.11574 2.13058
rclavicle -5.25785e-014 -3.97569e-015
rhumerus 16.8334 -1.30609 -76.0969
rradius 58.1606
rwrist -55.9002
rhand -4.59295 -54.3925
rfingers 7.12502
rthumb 21.1845 276.745
lclavicle -5.25785e-014 -3.97569e-015
lhumerus -36.1595 -30.643 105.586
lradius 105.152
lwrist 74.0643
lhand -16.0126 -12.0106
lfingers 7.12502
lthumb 10.188 17.7227
rfemur 0 0 0
rtibia 0
rfoot 0 0
rtoes 0
lfemur -8.00042 -9.04425 -12.7467
ltibia 21.6927
lfoot -21.3394 13.2828
ltoes -55.2444
454
root -0.657532 18.7406 5.49508 3.27118 4.27054 -1.03535
lowerback 3.89181 4.79662 2.67369
upperback 0.0137365 6.55205 1.77125
thorax -2.06692 3.24912 -0.0297577
lowerneck -10.231 -9.56589 -8.55763
upperneck 20.8459 -13.1479 6.67158
head 9.25254 -6.17415 2.13673
rclavicle 2.77802e-014 2.14687e-014
rhumerus 17.5792 -2.01433 -76.4136
rradius 57.2388
rwrist -55.5471
rhand -5.0698 -53.9609
rfingers 7.12502
rthumb 20.7263 277.126
lclavicle 2.77802e-014 2.14687e-014
lhumerus -36.1564 -30.7652 105.607
lradius 105.149
lwrist 74.1368
lhand -15.9276 -12.1483
lfingers 7.12502
lthumb 10.27 17.581
rfemur 0 0 0
rtibia 0
rfoot 0 0
rtoes 0
lfemur -8.10152 -9.0184 -12.7275
ltibia 21.6954
lfoot -21.2355 13.2333
ltoes -55.1867
455
root -0.65908 18.7425 5.49115 3.30642 4.40033 -1.00466
lowerback 4.04835 4.8184 2.75082
upperback 0.0615482 6.59119 1.85701
thorax -2.10598 3.26775 0.00137962
lowerneck -10.1915 -9.62505 -8.554
upperneck 20.7717 -13.1978 6.54549
head 9.21433 -6.21119 2.08972
rclavicle 7.40473e-014 3.02153e-014
rhumerus 18.4551 -2.49626 -76.5219
rradius 56.262
rwrist -55.2268
rhand -5.55359 -53.5754
rfingers 7.12502
rthumb 20.2614 277.461
lclavicle 7.40473e-014 3.02153e-014
lhumerus -36.0664 -30.7928 105.617
lradius 105.164
lwrist 74.1754
lhand -15.9827 -12.0556
lfingers 7.12502
lthumb 10.2168 17.6763
rfemur 0 0 0
rtibia 0
rfoot 0 0
rtoes 0
lfemur -8.1948 -8.95518 -12.7318
ltibia 21.7045
lfoot -21.0993 13.111
ltoes -55.2224
456
root -0.660551 18.7444 5.48558 3.35692 4.56157 -1.00314
lowerback 4.206 4.82092 2.84075
upperback 0.112373 6.60633 1.97462
thorax -2.14531 3.27445 0.0591367
lowerneck -10.2175 -9.6753 -8.53557
upperneck 20.7271 -13.2168 6.33968
head 9.18896 -6.23832 2.01463
rclavicle 4.02539e-015 -1.51076e-014
rhumerus 19.3409 -2.82797 -76.4908
rradius 55.3704
rwrist -55.0512
rhand -5.81609 -53.2941
rfingers 7.12502
rthumb 20.0091 277.716
lclavicle 4.02539e-015 -1.51076e-014
lhumerus -35.9842 -30.7886 105.637
lradius 105.209
lwrist 74.1731
lhand -16.0569 -11.9601
lfingers 7.12502
lthumb 10.1452 17.7753
rfemur 0 0 0
rtibia 0
rfoot 0 0
rtoes 0
lfemur -8.32659 -8.90435 -12.6949
ltibia 21.718
lfoot -21.0233 12.9343
ltoes -55.2301
